<svg xmlns="http://www.w3.org/2000/svg" width="155.877" height="87.623" viewBox="0 0 155.877 87.623">
  <g id="stareach_logo_done" data-name="stareach logo done" transform="translate(-9.812 -35.809)">
    <g id="Raggruppa_11" data-name="Raggruppa 11" transform="translate(9.812 79.752)">
      <path id="Tracciato_13" data-name="Tracciato 13" d="M22.889,50.58H71.947A4.188,4.188,0,0,1,76,54.909V68.144a4.188,4.188,0,0,1-4.051,4.329H22.889a4.188,4.188,0,0,1-4.051-4.329V54.909A4.188,4.188,0,0,1,22.889,50.58Z" transform="translate(1.974 -50.58)" fill="#81a714"/>
      <g id="Raggruppa_7" data-name="Raggruppa 7" transform="translate(25.318 0.819)" opacity="0.37">
        <path id="Tracciato_14" data-name="Tracciato 14" d="M33.124,58.24a9.633,9.633,0,0,1-2.636-.366,5.767,5.767,0,0,1-2.123-1.049,2.013,2.013,0,0,1-.805-1.562V52.652H28a6.049,6.049,0,0,0,1.611,3.538A4.753,4.753,0,0,0,32.9,57.264a3.775,3.775,0,0,0,2.245-.659,2.1,2.1,0,0,0,.952-1.83,2.685,2.685,0,0,0-.634-1.781,7.922,7.922,0,0,0-2.05-1.586l-3-1.781a7.013,7.013,0,0,1-2.221-1.879,4.085,4.085,0,0,1-.634-2.318,3.775,3.775,0,0,1,1.293-3,5.052,5.052,0,0,1,3.441-1.147,8.535,8.535,0,0,1,2.465.366,5.061,5.061,0,0,1,2,1.025,1.945,1.945,0,0,1,.805,1.537V46.82h-.439a5.884,5.884,0,0,0-1.586-3.49,4.569,4.569,0,0,0-3.246-1.074,3.073,3.073,0,0,0-1.977.683,2.174,2.174,0,0,0-.854,1.781,2.348,2.348,0,0,0,.61,1.659,10.592,10.592,0,0,0,2.1,1.537l3,1.781a8.968,8.968,0,0,1,2.343,1.855,3.368,3.368,0,0,1,.683,2.172,4.241,4.241,0,0,1-1.367,3.294,5.367,5.367,0,0,1-3.709,1.22Z" transform="translate(-27.56 -41.281)"/>
        <path id="Tracciato_15" data-name="Tracciato 15" d="M37.488,57.268a2.9,2.9,0,0,1-2.147-.781,3.256,3.256,0,0,1-.781-2.392V46.531H32.851v-.976h1.708v-2.2l1.22-1.464h.976v3.66h2.928v.976H36.756V54.1q0,2.2,1.708,2.2a3.321,3.321,0,0,0,.976-.122,4.217,4.217,0,0,0,.854-.366l.244.488A6.179,6.179,0,0,1,39.293,57a5.031,5.031,0,0,1-1.806.268Z" transform="translate(-20.651 -40.479)"/>
        <path id="Tracciato_16" data-name="Tracciato 16" d="M40.158,55.334a4.307,4.307,0,0,1-1.586-.317,3.457,3.457,0,0,1-1.391-1.1,3.279,3.279,0,0,1-.561-2,2.7,2.7,0,0,1,1.708-2.636,11.081,11.081,0,0,1,4.514-.781h.732a5.775,5.775,0,0,0-.659-3.27,2.234,2.234,0,0,0-1.9-.878,3,3,0,0,0-1.757.464,2.6,2.6,0,0,0-.927,1.611h-1.1a6.624,6.624,0,0,1,.1-1.293,1.763,1.763,0,0,1,.512-.9,2.763,2.763,0,0,1,1.44-.634,10.6,10.6,0,0,1,2.221-.22,4.388,4.388,0,0,1,3.124,1.074Q45.77,45.5,45.77,48.5v6.589H44.55l-.854-1.1h-.122a3.393,3.393,0,0,1-1.293.952,5.1,5.1,0,0,1-2.123.39Zm1.1-1.1a2.222,2.222,0,0,0,1.342-.39,3.934,3.934,0,0,0,.976-1.074V49.477h-.732a5.184,5.184,0,0,0-2.855.683,2,2,0,0,0-1.049,1.757A2.244,2.244,0,0,0,39.6,53.65a2.463,2.463,0,0,0,1.659.586Z" transform="translate(-15.73 -38.545)"/>
        <path id="Tracciato_17" data-name="Tracciato 17" d="M43.25,46.549a3.761,3.761,0,0,0-.342-1.83,1.427,1.427,0,0,0-1.367-.61H41.3V43.62H43.25a2.843,2.843,0,0,1,1.391.268,1.357,1.357,0,0,1,.683.83h.122a3.624,3.624,0,0,1,1.171-.952,3.779,3.779,0,0,1,1.757-.39,2.427,2.427,0,0,1,1.464.366,3.612,3.612,0,0,1,.854,1.1l-.976.732a1.535,1.535,0,0,0-.781-.537,3.274,3.274,0,0,0-1.171-.2,2.7,2.7,0,0,0-1.342.342,2.545,2.545,0,0,0-.976.879v9.029h-2.2Z" transform="translate(-9.622 -38.544)"/>
        <path id="Tracciato_18" data-name="Tracciato 18" d="M51,55.333a4.869,4.869,0,0,1-2.806-.781,5.015,5.015,0,0,1-1.733-2.147,8.173,8.173,0,0,1,0-6.076,4.962,4.962,0,0,1,1.684-2.147,4.363,4.363,0,0,1,2.611-.805,4.567,4.567,0,0,1,3.66,1.391,5.79,5.79,0,0,1,1.22,3.978l-.049.976H48.2a5.834,5.834,0,0,0,.878,3.343,2.769,2.769,0,0,0,2.416,1.293,3.571,3.571,0,0,0,1.928-.488,5.064,5.064,0,0,0,1.489-1.464l.488.366a5.3,5.3,0,0,1-1.879,1.952,5,5,0,0,1-2.514.61Zm2.318-6.589a6.768,6.768,0,0,0-.634-3.27,2.074,2.074,0,0,0-1.928-1.123,1.821,1.821,0,0,0-1.318.586,3.836,3.836,0,0,0-.927,1.562,7.411,7.411,0,0,0-.317,2.245Z" transform="translate(-3.639 -38.544)"/>
        <path id="Tracciato_19" data-name="Tracciato 19" d="M55.023,55.333a4.8,4.8,0,0,1-3.075-.878,3,3,0,0,1-1.074-2.416,3.459,3.459,0,0,1,.561-2.025,3.66,3.66,0,0,1,2.025-1.22,15.118,15.118,0,0,1,4-.415h.366a5.669,5.669,0,0,0-.586-3,1.932,1.932,0,0,0-1.733-.9,2.509,2.509,0,0,0-1.562.464,2.849,2.849,0,0,0-.878,1.733H51.729a8.768,8.768,0,0,1,.1-1.415,2.187,2.187,0,0,1,.512-1.025q.756-.854,3.66-.854a4.97,4.97,0,0,1,3.709,1.293A5.147,5.147,0,0,1,61,48.5V55.09H58.928l-.854-1.1h-.122a2.706,2.706,0,0,1-.683.683,3.512,3.512,0,0,1-2.245.659Zm.732-1.22a1.843,1.843,0,0,0,.878-.2,3.3,3.3,0,0,0,.708-.586,2.376,2.376,0,0,0,.488-.805v-3.05h-.366a3.986,3.986,0,0,0-2.514.634,2.3,2.3,0,0,0-.781,1.928,2.471,2.471,0,0,0,.415,1.537,1.394,1.394,0,0,0,1.171.537Z" transform="translate(2.884 -38.544)"/>
        <path id="Tracciato_20" data-name="Tracciato 20" d="M62.055,55.333a6.018,6.018,0,0,1-3.2-.805,5.293,5.293,0,0,1-2-2.147,6.876,6.876,0,0,1-.659-3.026,6.719,6.719,0,0,1,.659-3,5.254,5.254,0,0,1,2-2.172,6.018,6.018,0,0,1,3.2-.805q2.928,0,3.782.854a1.878,1.878,0,0,1,.512,1.1,18.772,18.772,0,0,1,.1,2.318h-.732a3.378,3.378,0,0,0-.952-2.343,3.219,3.219,0,0,0-2.343-.83,2.455,2.455,0,0,0-2.147,1.245,6.823,6.823,0,0,0-.781,3.636q0,4.881,3.05,4.881a3.486,3.486,0,0,0,1.952-.512,6.407,6.407,0,0,0,1.537-1.513l.756.561a6.366,6.366,0,0,1-1.781,1.83,5.181,5.181,0,0,1-2.953.732Z" transform="translate(9.835 -38.544)"/>
        <path id="Tracciato_21" data-name="Tracciato 21" d="M62.807,44.644a3.761,3.761,0,0,0-.342-1.83A1.427,1.427,0,0,0,61.1,42.2h-.244v-.732h2.928a2.528,2.528,0,0,1,1.342.293,1.62,1.62,0,0,1,.659.976,7.086,7.086,0,0,1,.2,1.9v2.147a6.157,6.157,0,0,1,.756-.464,4.467,4.467,0,0,1,1.928-.464,5.2,5.2,0,0,1,3.294,1.025A4.021,4.021,0,0,1,73.3,50.329v7.248H70.127V50.451a4.146,4.146,0,0,0-.634-2.562,1.878,1.878,0,0,0-1.562-.805,2.718,2.718,0,0,0-1.391.439,3.327,3.327,0,0,0-.561.415v9.639H62.807Z" transform="translate(15.915 -41.032)"/>
      </g>
      <g id="Raggruppa_10" data-name="Raggruppa 10" transform="translate(25.467 1.302)">
        <g id="Raggruppa_8" data-name="Raggruppa 8">
          <path id="Tracciato_22" data-name="Tracciato 22" d="M33.124,58.24a9.633,9.633,0,0,1-2.636-.366,5.767,5.767,0,0,1-2.123-1.049,2.013,2.013,0,0,1-.805-1.562V52.652H28a6.049,6.049,0,0,0,1.611,3.538A4.753,4.753,0,0,0,32.9,57.264a3.775,3.775,0,0,0,2.245-.659,2.1,2.1,0,0,0,.952-1.83,2.685,2.685,0,0,0-.634-1.781,7.922,7.922,0,0,0-2.05-1.586l-3-1.781a7.013,7.013,0,0,1-2.221-1.879,4.085,4.085,0,0,1-.634-2.318,3.775,3.775,0,0,1,1.293-3,5.052,5.052,0,0,1,3.441-1.147,8.535,8.535,0,0,1,2.465.366,5.061,5.061,0,0,1,2,1.025,1.945,1.945,0,0,1,.805,1.537V46.82h-.439a5.884,5.884,0,0,0-1.586-3.49,4.569,4.569,0,0,0-3.246-1.074,3.073,3.073,0,0,0-1.977.683,2.174,2.174,0,0,0-.854,1.781,2.348,2.348,0,0,0,.61,1.659,10.592,10.592,0,0,0,2.1,1.537l3,1.781a8.968,8.968,0,0,1,2.343,1.855,3.368,3.368,0,0,1,.683,2.172,4.241,4.241,0,0,1-1.367,3.294,5.367,5.367,0,0,1-3.709,1.22Z" transform="translate(-27.56 -41.281)" fill="#fff"/>
          <path id="Tracciato_23" data-name="Tracciato 23" d="M37.488,57.268a2.9,2.9,0,0,1-2.147-.781,3.256,3.256,0,0,1-.781-2.392V46.531H32.851v-.976h1.708v-2.2l1.22-1.464h.976v3.66h2.928v.976H36.756V54.1q0,2.2,1.708,2.2a3.321,3.321,0,0,0,.976-.122,4.217,4.217,0,0,0,.854-.366l.244.488A6.179,6.179,0,0,1,39.293,57a5.031,5.031,0,0,1-1.806.268Z" transform="translate(-20.651 -40.479)" fill="#fff"/>
          <path id="Tracciato_24" data-name="Tracciato 24" d="M40.158,55.334a4.307,4.307,0,0,1-1.586-.317,3.457,3.457,0,0,1-1.391-1.1,3.279,3.279,0,0,1-.561-2,2.7,2.7,0,0,1,1.708-2.636,11.081,11.081,0,0,1,4.514-.781h.732a5.775,5.775,0,0,0-.659-3.27,2.234,2.234,0,0,0-1.9-.878,3,3,0,0,0-1.757.464,2.6,2.6,0,0,0-.927,1.611h-1.1a6.624,6.624,0,0,1,.1-1.293,1.763,1.763,0,0,1,.512-.9,2.763,2.763,0,0,1,1.44-.634,10.6,10.6,0,0,1,2.221-.22,4.388,4.388,0,0,1,3.124,1.074Q45.77,45.5,45.77,48.5v6.589H44.55l-.854-1.1h-.122a3.393,3.393,0,0,1-1.293.952,5.1,5.1,0,0,1-2.123.39Zm1.1-1.1a2.222,2.222,0,0,0,1.342-.39,3.934,3.934,0,0,0,.976-1.074V49.477h-.732a5.184,5.184,0,0,0-2.855.683,2,2,0,0,0-1.049,1.757A2.244,2.244,0,0,0,39.6,53.65a2.463,2.463,0,0,0,1.659.586Z" transform="translate(-15.73 -38.545)" fill="#fff"/>
          <path id="Tracciato_25" data-name="Tracciato 25" d="M43.25,46.549a3.761,3.761,0,0,0-.342-1.83,1.427,1.427,0,0,0-1.367-.61H41.3V43.62H43.25a2.843,2.843,0,0,1,1.391.268,1.357,1.357,0,0,1,.683.83h.122a3.624,3.624,0,0,1,1.171-.952,3.779,3.779,0,0,1,1.757-.39,2.427,2.427,0,0,1,1.464.366,3.612,3.612,0,0,1,.854,1.1l-.976.732a1.535,1.535,0,0,0-.781-.537,3.274,3.274,0,0,0-1.171-.2,2.7,2.7,0,0,0-1.342.342,2.545,2.545,0,0,0-.976.879v9.029h-2.2Z" transform="translate(-9.622 -38.544)" fill="#fff"/>
          <path id="Tracciato_26" data-name="Tracciato 26" d="M51,55.333a4.869,4.869,0,0,1-2.806-.781,5.015,5.015,0,0,1-1.733-2.147,8.173,8.173,0,0,1,0-6.076,4.962,4.962,0,0,1,1.684-2.147,4.363,4.363,0,0,1,2.611-.805,4.567,4.567,0,0,1,3.66,1.391,5.79,5.79,0,0,1,1.22,3.978l-.049.976H48.2a5.834,5.834,0,0,0,.878,3.343,2.769,2.769,0,0,0,2.416,1.293,3.571,3.571,0,0,0,1.928-.488,5.064,5.064,0,0,0,1.489-1.464l.488.366a5.3,5.3,0,0,1-1.879,1.952,5,5,0,0,1-2.514.61Zm2.318-6.589a6.768,6.768,0,0,0-.634-3.27,2.074,2.074,0,0,0-1.928-1.123,1.821,1.821,0,0,0-1.318.586,3.836,3.836,0,0,0-.927,1.562,7.411,7.411,0,0,0-.317,2.245Z" transform="translate(-3.639 -38.544)" fill="#fff"/>
        </g>
        <g id="Raggruppa_9" data-name="Raggruppa 9" transform="translate(53.759 0.439)">
          <path id="Tracciato_27" data-name="Tracciato 27" d="M55.023,55.333a4.8,4.8,0,0,1-3.075-.878,3,3,0,0,1-1.074-2.416,3.459,3.459,0,0,1,.561-2.025,3.66,3.66,0,0,1,2.025-1.22,15.118,15.118,0,0,1,4-.415h.366a5.669,5.669,0,0,0-.586-3,1.932,1.932,0,0,0-1.733-.9,2.509,2.509,0,0,0-1.562.464,2.849,2.849,0,0,0-.878,1.733H51.729a8.768,8.768,0,0,1,.1-1.415,2.187,2.187,0,0,1,.512-1.025q.756-.854,3.66-.854a4.97,4.97,0,0,1,3.709,1.293A5.147,5.147,0,0,1,61,48.5V55.09H58.928l-.854-1.1h-.122a2.706,2.706,0,0,1-.683.683,3.512,3.512,0,0,1-2.245.659Zm.732-1.22a1.843,1.843,0,0,0,.878-.2,3.3,3.3,0,0,0,.708-.586,2.376,2.376,0,0,0,.488-.805v-3.05h-.366a3.986,3.986,0,0,0-2.514.634,2.3,2.3,0,0,0-.781,1.928,2.471,2.471,0,0,0,.415,1.537,1.394,1.394,0,0,0,1.171.537Z" transform="translate(-50.875 -38.984)" fill="#2f5280"/>
          <path id="Tracciato_28" data-name="Tracciato 28" d="M62.055,55.333a6.018,6.018,0,0,1-3.2-.805,5.293,5.293,0,0,1-2-2.147,6.876,6.876,0,0,1-.659-3.026,6.719,6.719,0,0,1,.659-3,5.254,5.254,0,0,1,2-2.172,6.018,6.018,0,0,1,3.2-.805q2.928,0,3.782.854a1.878,1.878,0,0,1,.512,1.1,18.772,18.772,0,0,1,.1,2.318h-.732a3.378,3.378,0,0,0-.952-2.343,3.219,3.219,0,0,0-2.343-.83,2.455,2.455,0,0,0-2.147,1.245,6.823,6.823,0,0,0-.781,3.636q0,4.881,3.05,4.881a3.486,3.486,0,0,0,1.952-.512,6.407,6.407,0,0,0,1.537-1.513l.756.561a6.366,6.366,0,0,1-1.781,1.83,5.181,5.181,0,0,1-2.953.732Z" transform="translate(-43.924 -38.984)" fill="#2f5280"/>
          <path id="Tracciato_29" data-name="Tracciato 29" d="M62.807,44.644a3.761,3.761,0,0,0-.342-1.83A1.427,1.427,0,0,0,61.1,42.2h-.244v-.732h2.928a2.528,2.528,0,0,1,1.342.293,1.62,1.62,0,0,1,.659.976,7.086,7.086,0,0,1,.2,1.9v2.147a6.157,6.157,0,0,1,.756-.464,4.467,4.467,0,0,1,1.928-.464,5.2,5.2,0,0,1,3.294,1.025A4.021,4.021,0,0,1,73.3,50.329v7.248H70.127V50.451a4.146,4.146,0,0,0-.634-2.562,1.878,1.878,0,0,0-1.562-.805,2.718,2.718,0,0,0-1.391.439,3.327,3.327,0,0,0-.561.415v9.639H62.807Z" transform="translate(-37.844 -41.471)" fill="#2f5280"/>
        </g>
      </g>
      <path id="Tracciato_30" data-name="Tracciato 30" d="M9.812,61.372H165.689v2.65H9.812Z" transform="translate(-9.812 -36.488)" fill="#2f5280"/>
    </g>
    <g id="Raggruppa_12" data-name="Raggruppa 12" transform="translate(20.834 113.635)">
      <path id="Tracciato_31" data-name="Tracciato 31" d="M159.738,115.231a1.68,1.68,0,0,1-1.059-.353,4.96,4.96,0,0,1-.991-1.3l-1.139-1.936h-.8v3.473h-1.025v-6.15a1.755,1.755,0,0,0-.16-.854.666.666,0,0,0-.638-.285H153.7V107.6h2.961a4.366,4.366,0,0,1,1.959.433,1.617,1.617,0,0,1,.888,1.617q0,1.515-1.822,1.936l1.2,1.993a4.167,4.167,0,0,0,.752.991,1.472,1.472,0,0,0,.786.319v.228a1.33,1.33,0,0,1-.3.08,2.1,2.1,0,0,1-.387.034Zm-3.132-3.986a1.994,1.994,0,0,0,.763-.171,1.688,1.688,0,0,0,.706-.535,1.363,1.363,0,0,0,.3-.888,1.416,1.416,0,0,0-.3-.922,1.653,1.653,0,0,0-.706-.547,1.89,1.89,0,0,0-.763-.182,3.53,3.53,0,0,0-.854.114v3.018a3.529,3.529,0,0,0,.854.114Z" transform="translate(-153.702 -107.601)" fill="#436ea7"/>
      <path id="Tracciato_32" data-name="Tracciato 32" d="M158.405,114.07a2.01,2.01,0,0,1-.74-.148,1.612,1.612,0,0,1-.649-.512,1.53,1.53,0,0,1-.262-.934,1.259,1.259,0,0,1,.8-1.23,5.172,5.172,0,0,1,2.107-.364H160a2.7,2.7,0,0,0-.307-1.526,1.043,1.043,0,0,0-.888-.41,1.4,1.4,0,0,0-.82.216,1.213,1.213,0,0,0-.433.752h-.512a3.083,3.083,0,0,1,.046-.6.821.821,0,0,1,.239-.421,1.29,1.29,0,0,1,.672-.3,4.95,4.95,0,0,1,1.036-.1,2.048,2.048,0,0,1,1.458.5,2.544,2.544,0,0,1,.535,1.89v3.075h-.569l-.4-.512H160a1.583,1.583,0,0,1-.6.444,2.382,2.382,0,0,1-.991.182Zm.512-.512a1.037,1.037,0,0,0,.626-.182,1.835,1.835,0,0,0,.456-.5v-1.537h-.342a2.42,2.42,0,0,0-1.332.319.932.932,0,0,0-.49.82,1.047,1.047,0,0,0,.307.809,1.149,1.149,0,0,0,.774.273Z" transform="translate(-149.718 -106.44)" fill="#436ea7"/>
      <path id="Tracciato_33" data-name="Tracciato 33" d="M161.569,116.235a3.469,3.469,0,0,1-1.833-.421,1.468,1.468,0,0,1-.672-1.344,1.308,1.308,0,0,1,.353-.911,2.082,2.082,0,0,1,.9-.569.76.76,0,0,1-.456-.683.544.544,0,0,1,.1-.353,1.8,1.8,0,0,1,.3-.273,1.568,1.568,0,0,1-.615-.569,1.7,1.7,0,0,1-.239-.911q0-1.708,2.164-1.708h2.107v.285l-.74.114v.057a1.481,1.481,0,0,1,.569.512,1.24,1.24,0,0,1,.228.74q0,1.708-2.164,1.708-1.2,0-1.2.4t1.2.4a3.29,3.29,0,0,1,1.8.444,1.444,1.444,0,0,1,.706,1.321,1.461,1.461,0,0,1-.683,1.344,3.407,3.407,0,0,1-1.822.421Zm0-4.726a1.108,1.108,0,0,0,.82-.307,1.7,1.7,0,0,0,0-1.982,1.067,1.067,0,0,0-.82-.33,1.124,1.124,0,0,0-.831.319,1.359,1.359,0,0,0-.307.991,1.4,1.4,0,0,0,.307,1A1.148,1.148,0,0,0,161.569,111.509Zm0,4.271a1.644,1.644,0,0,0,1.082-.33,1.179,1.179,0,0,0,.4-.979q0-1.139-1.367-1.31l-.626-.057a1.6,1.6,0,0,0-.717.512,1.375,1.375,0,0,0-.251.854,1.179,1.179,0,0,0,.4.979,1.644,1.644,0,0,0,1.082.33Z" transform="translate(-146.702 -106.438)" fill="#436ea7"/>
      <path id="Tracciato_34" data-name="Tracciato 34" d="M164,116.235a3.468,3.468,0,0,1-1.833-.421,1.468,1.468,0,0,1-.672-1.344,1.308,1.308,0,0,1,.353-.911,2.082,2.082,0,0,1,.9-.569.76.76,0,0,1-.456-.683.543.543,0,0,1,.1-.353,1.8,1.8,0,0,1,.3-.273,1.568,1.568,0,0,1-.615-.569,1.7,1.7,0,0,1-.239-.911q0-1.708,2.164-1.708h2.107v.285l-.74.114v.057a1.481,1.481,0,0,1,.569.512,1.24,1.24,0,0,1,.228.74q0,1.708-2.164,1.708-1.2,0-1.2.4t1.2.4a3.291,3.291,0,0,1,1.8.444,1.444,1.444,0,0,1,.706,1.321,1.461,1.461,0,0,1-.683,1.344,3.407,3.407,0,0,1-1.822.421Zm0-4.726a1.108,1.108,0,0,0,.82-.307,1.7,1.7,0,0,0,0-1.982,1.067,1.067,0,0,0-.82-.33,1.124,1.124,0,0,0-.831.319,1.359,1.359,0,0,0-.307.991,1.4,1.4,0,0,0,.307,1A1.148,1.148,0,0,0,164,111.509Zm0,4.271a1.644,1.644,0,0,0,1.082-.33,1.179,1.179,0,0,0,.4-.979q0-1.139-1.367-1.31l-.626-.057a1.6,1.6,0,0,0-.717.512,1.375,1.375,0,0,0-.251.854,1.179,1.179,0,0,0,.4.979,1.644,1.644,0,0,0,1.082.33Z" transform="translate(-143.529 -106.438)" fill="#436ea7"/>
      <path id="Tracciato_35" data-name="Tracciato 35" d="M165.235,108.943a.593.593,0,0,1-.456-.216.77.77,0,0,1-.182-.512.508.508,0,0,1,.137-.376.548.548,0,0,1,.387-.137.56.56,0,0,1,.444.216.743.743,0,0,1,.194.512.486.486,0,0,1-.148.376.508.508,0,0,1-.376.137Zm-.433,2.05a1.756,1.756,0,0,0-.159-.854.666.666,0,0,0-.638-.285h-.228v-.228H164.8a1.333,1.333,0,0,1,.626.114.6.6,0,0,1,.307.387,3.047,3.047,0,0,1,.091.865v3.986H164.8Z" transform="translate(-140.546 -107.469)" fill="#436ea7"/>
      <path id="Tracciato_36" data-name="Tracciato 36" d="M167.822,114.006a2.114,2.114,0,0,1-1.4-.456,2.006,2.006,0,0,1-.535-1.594v-2.05a1.756,1.756,0,0,0-.159-.854.666.666,0,0,0-.638-.285h-.114v-.228h.911a1.333,1.333,0,0,1,.626.114.6.6,0,0,1,.307.387,3.047,3.047,0,0,1,.091.865v2.05a1.667,1.667,0,0,0,.353,1.173,1.222,1.222,0,0,0,.9.364,1.53,1.53,0,0,0,1.139-.6v-4.35h1.025v5.352h-.569l-.4-.456H169.3a2.037,2.037,0,0,1-.626.41,2.167,2.167,0,0,1-.854.16Z" transform="translate(-138.982 -106.376)" fill="#436ea7"/>
      <path id="Tracciato_37" data-name="Tracciato 37" d="M168.66,109.968a1.756,1.756,0,0,0-.159-.854.666.666,0,0,0-.638-.285h-.228V108.6h1.025a1.407,1.407,0,0,1,.638.114.688.688,0,0,1,.33.342h.057a1.914,1.914,0,0,1,.615-.4,2.122,2.122,0,0,1,.866-.171,2.069,2.069,0,0,1,1.389.456,1.981,1.981,0,0,1,.547,1.594v3.416h-1.025v-3.416a1.59,1.59,0,0,0-.364-1.162,1.167,1.167,0,0,0-.888-.376,1.53,1.53,0,0,0-1.139.6v4.35H168.66Z" transform="translate(-135.509 -106.443)" fill="#436ea7"/>
      <path id="Tracciato_38" data-name="Tracciato 38" d="M172.969,116.235a3.468,3.468,0,0,1-1.833-.421,1.468,1.468,0,0,1-.672-1.344,1.308,1.308,0,0,1,.353-.911,2.082,2.082,0,0,1,.9-.569.76.76,0,0,1-.456-.683.543.543,0,0,1,.1-.353,1.8,1.8,0,0,1,.3-.273,1.568,1.568,0,0,1-.615-.569,1.7,1.7,0,0,1-.239-.911q0-1.708,2.164-1.708h2.107v.285l-.74.114v.057a1.481,1.481,0,0,1,.569.512,1.24,1.24,0,0,1,.228.74q0,1.708-2.164,1.708-1.2,0-1.2.4t1.2.4a3.291,3.291,0,0,1,1.8.444,1.444,1.444,0,0,1,.706,1.321,1.461,1.461,0,0,1-.683,1.344,3.407,3.407,0,0,1-1.822.421Zm0-4.726a1.108,1.108,0,0,0,.82-.307,1.7,1.7,0,0,0,0-1.982,1.067,1.067,0,0,0-.82-.33,1.124,1.124,0,0,0-.831.319,1.359,1.359,0,0,0-.307.991,1.4,1.4,0,0,0,.307,1A1.147,1.147,0,0,0,172.969,111.509Zm0,4.271a1.644,1.644,0,0,0,1.082-.33,1.179,1.179,0,0,0,.4-.979q0-1.139-1.367-1.31l-.626-.057a1.6,1.6,0,0,0-.717.512,1.375,1.375,0,0,0-.251.854,1.179,1.179,0,0,0,.4.979,1.644,1.644,0,0,0,1.082.33Z" transform="translate(-131.816 -106.438)" fill="#436ea7"/>
      <path id="Tracciato_39" data-name="Tracciato 39" d="M174.205,108.943a.593.593,0,0,1-.455-.216.77.77,0,0,1-.182-.512.508.508,0,0,1,.137-.376.548.548,0,0,1,.387-.137.56.56,0,0,1,.444.216.743.743,0,0,1,.194.512.486.486,0,0,1-.148.376.508.508,0,0,1-.376.137Zm-.433,2.05a1.756,1.756,0,0,0-.159-.854.666.666,0,0,0-.638-.285h-.228v-.228h1.025a1.332,1.332,0,0,1,.626.114.6.6,0,0,1,.307.387,3.046,3.046,0,0,1,.091.865v3.986h-1.025Z" transform="translate(-128.833 -107.469)" fill="#436ea7"/>
      <path id="Tracciato_40" data-name="Tracciato 40" d="M176.655,108.943a.593.593,0,0,1-.456-.216.77.77,0,0,1-.182-.512.508.508,0,0,1,.137-.376.548.548,0,0,1,.387-.137.56.56,0,0,1,.444.216.743.743,0,0,1,.194.512.486.486,0,0,1-.148.376.508.508,0,0,1-.376.137Zm-.433,2.05a1.756,1.756,0,0,0-.159-.854.666.666,0,0,0-.638-.285H175.2v-.228h1.025a1.333,1.333,0,0,1,.626.114.6.6,0,0,1,.307.387,3.048,3.048,0,0,1,.091.865v3.986h-1.025Z" transform="translate(-125.634 -107.469)" fill="#436ea7"/>
      <path id="Tracciato_41" data-name="Tracciato 41" d="M179.935,114.973a1.354,1.354,0,0,1-1-.364,1.519,1.519,0,0,1-.364-1.116v-3.53h-.8v-.456h.8v-1.025l.569-.683h.456v1.708h1.367v.456h-1.367v3.53q0,1.025.8,1.025a1.55,1.55,0,0,0,.456-.057,1.966,1.966,0,0,0,.4-.171l.114.228a2.879,2.879,0,0,1-.581.33,2.349,2.349,0,0,1-.843.125Z" transform="translate(-122.273 -107.343)" fill="#436ea7"/>
      <path id="Tracciato_42" data-name="Tracciato 42" d="M182.152,114.006a2.114,2.114,0,0,1-1.4-.456,2.006,2.006,0,0,1-.535-1.594v-2.05a1.756,1.756,0,0,0-.159-.854.666.666,0,0,0-.638-.285h-.114v-.228h.911a1.333,1.333,0,0,1,.626.114.6.6,0,0,1,.307.387,3.048,3.048,0,0,1,.091.865v2.05a1.667,1.667,0,0,0,.353,1.173,1.222,1.222,0,0,0,.9.364,1.53,1.53,0,0,0,1.139-.6v-4.35h1.025v5.352h-.569l-.4-.456h-.057a2.037,2.037,0,0,1-.626.41,2.167,2.167,0,0,1-.854.16Z" transform="translate(-120.27 -106.376)" fill="#436ea7"/>
      <path id="Tracciato_43" data-name="Tracciato 43" d="M184.709,114.07a2.439,2.439,0,0,1-1.344-.364,2.4,2.4,0,0,1-.866-1.014,3.516,3.516,0,0,1,0-2.824,2.322,2.322,0,0,1,.866-1,2.59,2.59,0,0,1,2.688,0,2.322,2.322,0,0,1,.865,1,3.515,3.515,0,0,1,0,2.824,2.4,2.4,0,0,1-.865,1.014A2.439,2.439,0,0,1,184.709,114.07Zm0-.456a1.034,1.034,0,0,0,.74-.307,1.922,1.922,0,0,0,.5-.843,3.941,3.941,0,0,0,0-2.369,1.922,1.922,0,0,0-.5-.843,1.034,1.034,0,0,0-.74-.307,1.073,1.073,0,0,0-.752.307,2.076,2.076,0,0,0-.5.843,4.191,4.191,0,0,0,0,2.369,2.075,2.075,0,0,0,.5.843A1.073,1.073,0,0,0,184.709,113.615Z" transform="translate(-116.486 -106.44)" fill="#436ea7"/>
      <path id="Tracciato_44" data-name="Tracciato 44" d="M186.036,108.943a.593.593,0,0,1-.456-.216.77.77,0,0,1-.182-.512.507.507,0,0,1,.137-.376.548.548,0,0,1,.387-.137.56.56,0,0,1,.444.216.743.743,0,0,1,.194.512.486.486,0,0,1-.148.376.508.508,0,0,1-.376.137Zm-.433,2.05a1.754,1.754,0,0,0-.16-.854.666.666,0,0,0-.638-.285h-.228v-.228H185.6a1.332,1.332,0,0,1,.626.114.6.6,0,0,1,.307.387,3.046,3.046,0,0,1,.091.865v3.986H185.6Z" transform="translate(-113.386 -107.469)" fill="#436ea7"/>
      <path id="Tracciato_45" data-name="Tracciato 45" d="M189.769,114.07a2.439,2.439,0,0,1-1.344-.364,2.4,2.4,0,0,1-.865-1.014,3.515,3.515,0,0,1,0-2.824,2.322,2.322,0,0,1,.865-1,2.59,2.59,0,0,1,2.688,0,2.322,2.322,0,0,1,.866,1,3.515,3.515,0,0,1,0,2.824,2.4,2.4,0,0,1-.866,1.014A2.439,2.439,0,0,1,189.769,114.07Zm0-.456a1.034,1.034,0,0,0,.74-.307,1.921,1.921,0,0,0,.5-.843,3.942,3.942,0,0,0,0-2.369,1.922,1.922,0,0,0-.5-.843,1.034,1.034,0,0,0-.74-.307,1.073,1.073,0,0,0-.752.307,2.076,2.076,0,0,0-.5.843,4.191,4.191,0,0,0,0,2.369,2.075,2.075,0,0,0,.5.843A1.073,1.073,0,0,0,189.769,113.615Z" transform="translate(-109.879 -106.44)" fill="#436ea7"/>
      <path id="Tracciato_46" data-name="Tracciato 46" d="M193.161,115.231a2.193,2.193,0,0,1-.957-.182,1.614,1.614,0,0,1-.581-.444h-.057l-.4.512H190.6v-6.15a1.757,1.757,0,0,0-.159-.854.666.666,0,0,0-.638-.285h-.228V107.6H190.6a1.332,1.332,0,0,1,.626.114.6.6,0,0,1,.307.387,3.047,3.047,0,0,1,.091.865v1.025a3.927,3.927,0,0,1,.661-.251,2.88,2.88,0,0,1,.763-.091,1.831,1.831,0,0,1,1.606.786,3.38,3.38,0,0,1,.558,2,3.52,3.52,0,0,1-.535,2,1.726,1.726,0,0,1-1.515.786Zm-.342-.456a1.052,1.052,0,0,0,.979-.638,3.749,3.749,0,0,0,.33-1.7,3.5,3.5,0,0,0-.353-1.7,1.134,1.134,0,0,0-1.07-.638,1.429,1.429,0,0,0-.49.091q-.25.091-.592.251v3.644a1.889,1.889,0,0,0,.478.5,1.308,1.308,0,0,0,.717.182Z" transform="translate(-106.862 -107.601)" fill="#436ea7"/>
      <path id="Tracciato_47" data-name="Tracciato 47" d="M193.686,108.943a.594.594,0,0,1-.456-.216.771.771,0,0,1-.182-.512.507.507,0,0,1,.137-.376.548.548,0,0,1,.387-.137.56.56,0,0,1,.444.216.743.743,0,0,1,.194.512.486.486,0,0,1-.148.376.508.508,0,0,1-.376.137Zm-.433,2.05a1.755,1.755,0,0,0-.159-.854.666.666,0,0,0-.638-.285h-.228v-.228h1.025a1.332,1.332,0,0,1,.626.114.6.6,0,0,1,.307.387,3.046,3.046,0,0,1,.091.865v3.986h-1.025Z" transform="translate(-103.397 -107.469)" fill="#436ea7"/>
      <path id="Tracciato_48" data-name="Tracciato 48" d="M196.074,114.07a2.272,2.272,0,0,1-1.31-.364,2.34,2.34,0,0,1-.809-1,3.814,3.814,0,0,1,0-2.836,2.316,2.316,0,0,1,.786-1,2.036,2.036,0,0,1,1.218-.376,2.131,2.131,0,0,1,1.708.649,2.7,2.7,0,0,1,.569,1.856l-.023.456h-3.451a2.723,2.723,0,0,0,.41,1.56,1.292,1.292,0,0,0,1.127.6,1.666,1.666,0,0,0,.9-.228,2.364,2.364,0,0,0,.695-.683l.228.171a2.475,2.475,0,0,1-.877.911,2.334,2.334,0,0,1-1.173.285ZM197.156,111a3.158,3.158,0,0,0-.3-1.526.968.968,0,0,0-.9-.524.85.85,0,0,0-.615.273,1.79,1.79,0,0,0-.433.729,3.459,3.459,0,0,0-.148,1.048Z" transform="translate(-101.497 -106.44)" fill="#436ea7"/>
      <path id="Tracciato_49" data-name="Tracciato 49" d="M198.135,114.973a1.354,1.354,0,0,1-1-.364,1.519,1.519,0,0,1-.364-1.116v-3.53h-.8v-.456h.8v-1.025l.569-.683h.456v1.708h1.367v.456h-1.367v3.53q0,1.025.8,1.025a1.55,1.55,0,0,0,.456-.057,1.966,1.966,0,0,0,.4-.171l.114.228a2.88,2.88,0,0,1-.581.33,2.349,2.349,0,0,1-.843.125Z" transform="translate(-98.508 -107.343)" fill="#436ea7"/>
      <path id="Tracciato_50" data-name="Tracciato 50" d="M199.805,114.973a1.354,1.354,0,0,1-1-.364,1.519,1.519,0,0,1-.364-1.116v-3.53h-.8v-.456h.8v-1.025l.569-.683h.456v1.708h1.367v.456h-1.367v3.53q0,1.025.8,1.025a1.55,1.55,0,0,0,.456-.057,1.966,1.966,0,0,0,.4-.171l.114.228a2.88,2.88,0,0,1-.581.33,2.349,2.349,0,0,1-.843.125Z" transform="translate(-96.327 -107.343)" fill="#436ea7"/>
      <path id="Tracciato_51" data-name="Tracciato 51" d="M200.655,108.943a.593.593,0,0,1-.456-.216.77.77,0,0,1-.182-.512.508.508,0,0,1,.137-.376.548.548,0,0,1,.387-.137.56.56,0,0,1,.444.216.743.743,0,0,1,.194.512.486.486,0,0,1-.148.376.508.508,0,0,1-.376.137Zm-.433,2.05a1.757,1.757,0,0,0-.159-.854.666.666,0,0,0-.638-.285H199.2v-.228h1.025a1.332,1.332,0,0,1,.626.114.6.6,0,0,1,.307.387,3.046,3.046,0,0,1,.091.865v3.986h-1.025Z" transform="translate(-94.295 -107.469)" fill="#436ea7"/>
      <path id="Tracciato_52" data-name="Tracciato 52" d="M201.581,109.916a2.943,2.943,0,0,0-.524-.888.949.949,0,0,0-.661-.285v-.228a1.522,1.522,0,0,0,.16-.012,2.261,2.261,0,0,1,.228-.012,2.014,2.014,0,0,1,1.093.307,2.324,2.324,0,0,1,.843,1.116l1.025,2.448,1.594-3.758h.569l-2.335,5.466h-.228Z" transform="translate(-92.73 -106.437)" fill="#436ea7"/>
      <path id="Tracciato_53" data-name="Tracciato 53" d="M204.326,108.943a.593.593,0,0,1-.456-.216.77.77,0,0,1-.182-.512.508.508,0,0,1,.137-.376.548.548,0,0,1,.387-.137.56.56,0,0,1,.444.216.743.743,0,0,1,.194.512.486.486,0,0,1-.148.376.508.508,0,0,1-.376.137Zm-.433,2.05a1.756,1.756,0,0,0-.159-.854.666.666,0,0,0-.638-.285h-.228v-.228h1.025a1.333,1.333,0,0,1,.626.114.6.6,0,0,1,.307.387,3.049,3.049,0,0,1,.091.865v3.986h-1.025Z" transform="translate(-89.503 -107.469)" fill="#436ea7"/>
    </g>
    <path id="Tracciato_54" data-name="Tracciato 54" d="M21.624,60.158h0l.628-.321.05-.026.431-.22c82.251-41.881,90.137,31.831,103.525-7.3l5.683-16.612" transform="translate(17.424 15.709)" fill="none" stroke="#81a714" stroke-width="5"/>
    <path id="Tracciato_55" data-name="Tracciato 55" d="M47.711,19.308l24.9-12.42L72.094,20.16l-.521,13.272L59.641,26.37Z" transform="translate(85.814 28.921)" fill="#64a10d" opacity="0.998"/>
  </g>
</svg>
