<svg id="calendar" xmlns="http://www.w3.org/2000/svg" width="48" height="48" viewBox="0 0 48 48">
  <g id="Raggruppa_6" data-name="Raggruppa 6">
    <g id="Raggruppa_5" data-name="Raggruppa 5">
      <circle id="Ellisse_2" data-name="Ellisse 2" cx="2" cy="2" r="2" transform="translate(34 18)" fill="#2f5280"/>
      <path id="Tracciato_9" data-name="Tracciato 9" d="M40.5,3.75H38.063V1.875a1.875,1.875,0,0,0-3.75,0V3.75H25.781V1.875a1.875,1.875,0,0,0-3.75,0V3.75H13.594V1.875a1.875,1.875,0,0,0-3.75,0V3.75H7.5A7.509,7.509,0,0,0,0,11.25V40.5A7.509,7.509,0,0,0,7.5,48H21.844a1.875,1.875,0,1,0,0-3.75H7.5A3.754,3.754,0,0,1,3.75,40.5V11.25A3.754,3.754,0,0,1,7.5,7.5H9.844V9.375a1.875,1.875,0,1,0,3.75,0V7.5h8.438V9.375a1.875,1.875,0,1,0,3.75,0V7.5h8.531V9.375a1.875,1.875,0,1,0,3.75,0V7.5H40.5a3.754,3.754,0,0,1,3.75,3.75V21.938a1.875,1.875,0,0,0,3.75,0V11.25A7.509,7.509,0,0,0,40.5,3.75Z" fill="#2f5280"/>
      <path id="Tracciato_10" data-name="Tracciato 10" d="M281.344,270a11.344,11.344,0,1,0,11.344,11.344A11.357,11.357,0,0,0,281.344,270Zm0,18.938a7.594,7.594,0,1,1,7.594-7.594A7.6,7.6,0,0,1,281.344,288.938Z" transform="translate(-244.688 -244.688)" fill="#2f5280"/>
      <path id="Tracciato_11" data-name="Tracciato 11" d="M375.594,333.844h-.844v-1.969a1.875,1.875,0,0,0-3.75,0v3.844a1.875,1.875,0,0,0,1.875,1.875h2.719a1.875,1.875,0,0,0,0-3.75Z" transform="translate(-336.219 -299.063)" fill="#2f5280"/>
      <circle id="Ellisse_3" data-name="Ellisse 3" cx="2" cy="2" r="2" transform="translate(26 18)" fill="#2f5280"/>
      <circle id="Ellisse_4" data-name="Ellisse 4" cx="2" cy="2" r="2" transform="translate(18 26)" fill="#2f5280"/>
      <circle id="Ellisse_5" data-name="Ellisse 5" cx="2" cy="2" r="2" transform="translate(10 18)" fill="#2f5280"/>
      <circle id="Ellisse_6" data-name="Ellisse 6" cx="2" cy="2" r="2" transform="translate(10 26)" fill="#2f5280"/>
      <circle id="Ellisse_7" data-name="Ellisse 7" cx="2" cy="2" r="2" transform="translate(10 34)" fill="#2f5280"/>
      <circle id="Ellisse_8" data-name="Ellisse 8" cx="2" cy="2" r="2" transform="translate(18 34)" fill="#2f5280"/>
      <circle id="Ellisse_9" data-name="Ellisse 9" cx="2" cy="2" r="2" transform="translate(18 18)" fill="#2f5280"/>
    </g>
  </g>
</svg>
