<svg xmlns="http://www.w3.org/2000/svg" width="56.18" height="72.881" viewBox="0 0 56.18 72.881">
  <path id="clipboard_1_" data-name="clipboard (1)" d="M49.063,5.608H42.135V2.847A2.847,2.847,0,0,0,39.288,0h-22.4a2.847,2.847,0,0,0-2.847,2.847V5.608H7.117A7.125,7.125,0,0,0,0,12.725V65.763a7.125,7.125,0,0,0,7.117,7.117H49.063a7.125,7.125,0,0,0,7.117-7.117V12.725a7.126,7.126,0,0,0-7.117-7.117Zm-12.622.086v5.523h-16.7V5.694Zm14.045,60.07a1.425,1.425,0,0,1-1.423,1.423H7.117a1.425,1.425,0,0,1-1.423-1.423V12.725A1.425,1.425,0,0,1,7.117,11.3h6.927v2.762a2.847,2.847,0,0,0,2.847,2.847h22.4a2.847,2.847,0,0,0,2.847-2.847V11.3h6.928a1.425,1.425,0,0,1,1.423,1.423ZM41.3,33.24a2.847,2.847,0,0,1,0,4.026L26.339,52.227a2.847,2.847,0,0,1-4.026,0l-7.435-7.435A2.847,2.847,0,0,1,18.9,40.766l5.422,5.422L37.274,33.241a2.847,2.847,0,0,1,4.026,0Zm0,0" opacity="0.47"/>
</svg>
