<svg xmlns="http://www.w3.org/2000/svg" width="14.714" height="18.729" viewBox="0 0 14.714 18.729">
  <g id="clipboard" transform="translate(-47.037 0)">
    <g id="Raggruppa_43" data-name="Raggruppa 43" transform="translate(47.037 0)">
      <g id="Raggruppa_42" data-name="Raggruppa 42" transform="translate(0 0)">
        <path id="Tracciato_81" data-name="Tracciato 81" d="M59.879,2.454H58.184V1.7c0-.245-.268-.357-.513-.357H56.356A1.994,1.994,0,0,0,54.372,0a2.029,2.029,0,0,0-1.984,1.338H51.095c-.245,0-.49.111-.49.357v.758H48.91A1.9,1.9,0,0,0,47.037,4.26V17.035a1.794,1.794,0,0,0,1.873,1.694H59.879a1.794,1.794,0,0,0,1.873-1.694V4.26A1.9,1.9,0,0,0,59.879,2.454ZM51.5,2.231h1.226a.491.491,0,0,0,.424-.4,1.293,1.293,0,0,1,1.226-1,1.271,1.271,0,0,1,1.2,1,.49.49,0,0,0,.446.4h1.271V4.015H51.5Zm9.364,14.8a.9.9,0,0,1-.981.8H48.91a.9.9,0,0,1-.981-.8V4.26a1,1,0,0,1,.981-.914H50.6V4.483a.468.468,0,0,0,.49.424h6.577a.49.49,0,0,0,.513-.424V3.346h1.694a1,1,0,0,1,.981.914V17.035Z" transform="translate(-47.037 0)" fill="#fff"/>
        <path id="Tracciato_82" data-name="Tracciato 82" d="M102.163,230.428l-1.427,1.36-.6-.624a.446.446,0,0,0-.624-.022.468.468,0,0,0,0,.647l.914.936a.4.4,0,0,0,.312.134.445.445,0,0,0,.312-.134l1.739-1.65.026-.026a.424.424,0,0,0-.026-.6A.446.446,0,0,0,102.163,230.428Z" transform="translate(-97.147 -220.483)" fill="#fff"/>
        <path id="Tracciato_83" data-name="Tracciato 83" d="M204.122,256.034h-5.128a.446.446,0,1,0,0,.892h5.128a.446.446,0,0,0,0-.892Z" transform="translate(-192.083 -245.108)" fill="#fff"/>
        <path id="Tracciato_84" data-name="Tracciato 84" d="M204.122,172.442h-5.128a.446.446,0,1,0,0,.892h5.128a.446.446,0,0,0,0-.892Z" transform="translate(-192.083 -165.083)" fill="#fff"/>
        <path id="Tracciato_85" data-name="Tracciato 85" d="M102.163,314.02l-1.427,1.36-.6-.624a.446.446,0,0,0-.624-.022.468.468,0,0,0,0,.647l.914.936a.4.4,0,0,0,.312.134.446.446,0,0,0,.312-.134l1.739-1.65.026-.026a.424.424,0,0,0-.026-.6A.446.446,0,0,0,102.163,314.02Z" transform="translate(-97.147 -300.508)" fill="#fff"/>
        <path id="Tracciato_86" data-name="Tracciato 86" d="M204.122,339.626h-5.128a.446.446,0,1,0,0,.892h5.128a.446.446,0,0,0,0-.892Z" transform="translate(-192.083 -325.133)" fill="#fff"/>
        <path id="Tracciato_87" data-name="Tracciato 87" d="M97.624,146.485h2.7a.424.424,0,0,0,.4-.446v-2.408a.446.446,0,0,0-.446-.446H97.624a.446.446,0,0,0-.446.446v2.408a.429.429,0,0,0,0,.046A.424.424,0,0,0,97.624,146.485Zm.446-2.408h1.761v1.516H98.07Z" transform="translate(-95.038 -137.075)" fill="#fff"/>
      </g>
    </g>
  </g>
</svg>
