<svg xmlns="http://www.w3.org/2000/svg" width="9.428" height="12" viewBox="0 0 9.428 12">
  <g id="clipboard_blue" transform="translate(-47.037 0)">
    <g id="Raggruppa_19" data-name="Raggruppa 19" transform="translate(47.037 0)">
      <g id="Raggruppa_18" data-name="Raggruppa 18" transform="translate(0 0)">
        <path id="Tracciato_62" data-name="Tracciato 62" d="M55.265,1.572H54.179V1.087c0-.157-.171-.229-.329-.229h-.843A1.278,1.278,0,0,0,51.737,0a1.3,1.3,0,0,0-1.271.857h-.829c-.157,0-.314.071-.314.229v.486H48.237a1.214,1.214,0,0,0-1.2,1.157v8.185A1.149,1.149,0,0,0,48.237,12h7.028a1.149,1.149,0,0,0,1.2-1.086V2.729A1.214,1.214,0,0,0,55.265,1.572ZM49.894,1.43h.786a.314.314,0,0,0,.271-.257A.829.829,0,0,1,51.737.53a.814.814,0,0,1,.771.643.314.314,0,0,0,.286.257h.814V2.572H49.894Zm6,9.485a.579.579,0,0,1-.629.514H48.237a.579.579,0,0,1-.629-.514V2.729a.643.643,0,0,1,.629-.586h1.086v.729a.3.3,0,0,0,.314.271h4.214a.314.314,0,0,0,.329-.271V2.144h1.086a.643.643,0,0,1,.629.586v8.185Z" transform="translate(-47.037 0)" fill="#2f5280"/>
        <path id="Tracciato_63" data-name="Tracciato 63" d="M101.164,230.386l-.914.871-.386-.4a.286.286,0,0,0-.4-.014.3.3,0,0,0,0,.414l.586.6a.257.257,0,0,0,.2.086.286.286,0,0,0,.2-.086l1.114-1.057.016-.016a.271.271,0,0,0-.016-.383A.286.286,0,0,0,101.164,230.386Z" transform="translate(-97.95 -224.014)" fill="#2f5280"/>
        <path id="Tracciato_64" data-name="Tracciato 64" d="M202.119,256.034h-3.285a.286.286,0,1,0,0,.571h3.285a.286.286,0,1,0,0-.571Z" transform="translate(-194.405 -249.034)" fill="#2f5280"/>
        <path id="Tracciato_65" data-name="Tracciato 65" d="M202.119,172.442h-3.285a.286.286,0,1,0,0,.571h3.285a.286.286,0,1,0,0-.571Z" transform="translate(-194.405 -167.727)" fill="#2f5280"/>
        <path id="Tracciato_66" data-name="Tracciato 66" d="M101.164,313.978l-.914.871-.386-.4a.286.286,0,0,0-.4-.014.3.3,0,0,0,0,.414l.586.6a.257.257,0,0,0,.2.086.286.286,0,0,0,.2-.086l1.114-1.057.016-.016a.271.271,0,0,0-.016-.383A.286.286,0,0,0,101.164,313.978Z" transform="translate(-97.95 -305.32)" fill="#2f5280"/>
        <path id="Tracciato_67" data-name="Tracciato 67" d="M202.119,339.626h-3.285a.286.286,0,1,0,0,.571h3.285a.286.286,0,1,0,0-.571Z" transform="translate(-194.405 -330.34)" fill="#2f5280"/>
        <path id="Tracciato_68" data-name="Tracciato 68" d="M97.464,145.3h1.729a.271.271,0,0,0,.256-.286v-1.543a.286.286,0,0,0-.286-.286h-1.7a.286.286,0,0,0-.286.286v1.543a.277.277,0,0,0,0,.029A.271.271,0,0,0,97.464,145.3Zm.286-1.543h1.128v.971H97.75Z" transform="translate(-95.807 -139.27)" fill="#2f5280"/>
      </g>
    </g>
  </g>
</svg>
