<svg xmlns="http://www.w3.org/2000/svg" xmlns:xlink="http://www.w3.org/1999/xlink" width="33.516" height="33.516" viewBox="0 0 33.516 33.516">
  <defs>
    <filter id="Ellisse_13" x="0" y="0" width="33.516" height="33.516" filterUnits="userSpaceOnUse">
      <feOffset dy="3" input="SourceAlpha"/>
      <feGaussianBlur stdDeviation="3" result="blur"/>
      <feFlood flood-opacity="0.102"/>
      <feComposite operator="in" in2="blur"/>
      <feComposite in="SourceGraphic"/>
    </filter>
  </defs>
  <g id="confirm_UpdateList" transform="translate(-573.955 -349.87)">
    <g transform="matrix(1, 0, 0, 1, 573.95, 349.87)" filter="url(#Ellisse_13)">
      <circle id="Ellisse_13-2" data-name="Ellisse 13" cx="7.626" cy="7.626" r="7.626" transform="matrix(1, 0.02, -0.02, 1, 9.27, 6)" fill="#fff"/>
    </g>
    <path id="check" d="M2.927,6.227a.39.39,0,0,1-.552,0l-2.2-2.2a.585.585,0,0,1,0-.828l.276-.276a.585.585,0,0,1,.828,0L2.651,4.3,6.369.578a.585.585,0,0,1,.828,0l.276.276a.585.585,0,0,1,0,.828Zm0,0" transform="translate(586.36 360.676)" fill="#81a714"/>
  </g>
</svg>
