<svg id="ellipsis" xmlns="http://www.w3.org/2000/svg" width="2.417" height="9.67" viewBox="0 0 2.417 9.67">
  <path id="Tracciato_74" data-name="Tracciato 74" d="M2.417,193.209A1.209,1.209,0,1,1,1.209,192,1.209,1.209,0,0,1,2.417,193.209Zm0,0" transform="translate(0 -188.374)" fill="#656565"/>
  <path id="Tracciato_75" data-name="Tracciato 75" d="M2.417,1.209A1.209,1.209,0,1,1,1.209,0,1.209,1.209,0,0,1,2.417,1.209Zm0,0" fill="#656565"/>
  <path id="Tracciato_76" data-name="Tracciato 76" d="M2.417,385.209A1.209,1.209,0,1,1,1.209,384,1.209,1.209,0,0,1,2.417,385.209Zm0,0" transform="translate(0 -376.748)" fill="#656565"/>
</svg>
