<svg xmlns="http://www.w3.org/2000/svg" width="10.29" height="10.336" viewBox="0 0 10.29 10.336">
  <g id="key" transform="translate(-1.147 0)">
    <path id="Tracciato_57" data-name="Tracciato 57" d="M10.566.87a2.982,2.982,0,0,0-4.212,0A2.947,2.947,0,0,0,5.5,2.639a3,3,0,0,0,.3,1.674L1.147,8.963,2.473,10.29l.54-.54.587.587L4.859,9.077l-.587-.587L4.7,8.059l.587.587L6.549,7.387,5.962,6.8,7.124,5.639a3,3,0,0,0,1.674.3,2.947,2.947,0,0,0,1.768-.853,2.982,2.982,0,0,0,0-4.212Zm-.428,3.784A2.366,2.366,0,0,1,7.228,5l-.2-.124L5.106,6.8l.587.587-.4.4L4.7,7.2,3.415,8.491,4,9.077l-.4.4-.587-.587-.54.54L2,8.963,6.555,4.412l-.124-.2a2.373,2.373,0,1,1,3.706.446Z" transform="translate(0 0)"/>
    <path id="Tracciato_58" data-name="Tracciato 58" d="M342.993,70.113a.992.992,0,0,0,1.4,1.4h0a.992.992,0,0,0-1.4-1.4Zm.975.975a.386.386,0,1,1,0-.546A.387.387,0,0,1,343.967,71.088Z" transform="translate(-334.659 -68.413)"/>
  </g>
</svg>
