<svg xmlns="http://www.w3.org/2000/svg" width="21.549" height="20.612" viewBox="0 0 21.549 20.612">
  <g id="logout" transform="translate(0 -0.332)">
    <path id="Tracciato_69" data-name="Tracciato 69" d="M163.62,220.405H150.035a.7.7,0,1,1,0-1.405H163.62a.7.7,0,1,1,0,1.405Zm0,0" transform="translate(-142.774 -209.065)" fill="#fff"/>
    <path id="Tracciato_70" data-name="Tracciato 70" d="M153.79,142.554a.7.7,0,0,1-.5-.206l-3.748-3.748a.7.7,0,0,1,0-.994l3.748-3.748a.7.7,0,1,1,.994.994l-3.251,3.251,3.251,3.251a.7.7,0,0,1-.5,1.2Zm0,0" transform="translate(-142.781 -127.465)" fill="#fff"/>
    <path id="Tracciato_71" data-name="Tracciato 71" d="M10.306,20.944A10.306,10.306,0,1,1,19.9,6.868a.7.7,0,1,1-1.308.514,8.9,8.9,0,1,0,0,6.512.7.7,0,1,1,1.308.514,10.253,10.253,0,0,1-9.592,6.535Zm0,0" transform="translate(0 0)" fill="#fff"/>
  </g>
</svg>
