<svg xmlns="http://www.w3.org/2000/svg" width="575.999" height="384" viewBox="0 0 575.999 384">
  <path id="password-reveal-on" d="M288,144a110.941,110.941,0,0,0-31.24,5A55.4,55.4,0,0,1,264,176a56,56,0,0,1-56,56,55.4,55.4,0,0,1-27-7.24A111.71,111.71,0,1,0,288,144Zm284.52,97.4C518.29,135.59,410.93,64,288,64S57.68,135.64,3.48,241.41a32.35,32.35,0,0,0,0,29.19C57.71,376.41,165.07,448,288,448s230.32-71.64,284.52-177.41a32.35,32.35,0,0,0,0-29.19ZM288,400c-98.65,0-189.09-55-237.93-144C98.91,167,189.34,112,288,112s189.09,55,237.93,144C477.1,345,386.66,400,288,400Z" transform="translate(-0.001 -64)" fill="#7b7b7b"/>
</svg>
