<svg id="settings" xmlns="http://www.w3.org/2000/svg" width="20.549" height="20.549" viewBox="0 0 20.549 20.549">
  <g id="Raggruppa_22" data-name="Raggruppa 22" transform="translate(7.264 7.264)">
    <g id="Raggruppa_21" data-name="Raggruppa 21">
      <path id="Tracciato_72" data-name="Tracciato 72" d="M184.01,181a3.01,3.01,0,1,0,3.01,3.01A3.014,3.014,0,0,0,184.01,181Z" transform="translate(-181 -181)" fill="#fff"/>
    </g>
  </g>
  <g id="Raggruppa_24" data-name="Raggruppa 24">
    <g id="Raggruppa_23" data-name="Raggruppa 23">
      <path id="Tracciato_73" data-name="Tracciato 73" d="M20.549,11.972v-3.4l-2.786-.549a7.736,7.736,0,0,0-.606-1.459l1.554-2.332-2.4-2.4L13.979,3.392a7.735,7.735,0,0,0-1.459-.606L11.972,0h-3.4L8.028,2.786a7.736,7.736,0,0,0-1.459.606L4.238,1.837l-2.4,2.4L3.392,6.569a7.735,7.735,0,0,0-.606,1.459L0,8.577v3.4l2.786.549a7.736,7.736,0,0,0,.606,1.459L1.837,16.311l2.4,2.4,2.332-1.554a7.735,7.735,0,0,0,1.459.606l.548,2.786h3.4l.549-2.786a7.736,7.736,0,0,0,1.459-.606l2.332,1.554,2.4-2.4-1.554-2.332a7.735,7.735,0,0,0,.606-1.459ZM10.274,14.489a4.214,4.214,0,1,1,4.214-4.214A4.219,4.219,0,0,1,10.274,14.489Z" fill="#fff"/>
    </g>
  </g>
</svg>
