<svg xmlns="http://www.w3.org/2000/svg" width="50.516" height="57.188" viewBox="0 0 50.516 57.188">
  <g id="outline" transform="translate(-39.988 -16)">
    <path id="Tracciato_1" data-name="Tracciato 1" d="M128.953,105.906h20.969a.953.953,0,0,0,0-1.906H128.953a.953.953,0,0,0,0,1.906Z" transform="translate(-77.526 -77.516)" fill="#2f5280"/>
    <path id="Tracciato_2" data-name="Tracciato 2" d="M128.953,153.906h20.969a.953.953,0,0,0,0-1.906H128.953a.953.953,0,0,0,0,1.906Z" transform="translate(-77.526 -119.797)" fill="#2f5280"/>
    <path id="Tracciato_3" data-name="Tracciato 3" d="M128.953,201.906h20.969a.953.953,0,0,0,0-1.906H128.953a.953.953,0,0,0,0,1.906Z" transform="translate(-77.526 -162.078)" fill="#2f5280"/>
    <path id="Tracciato_4" data-name="Tracciato 4" d="M128.953,249.906h20.969a.953.953,0,0,0,0-1.906H128.953a.953.953,0,0,0,0,1.906Z" transform="translate(-77.526 -204.359)" fill="#2f5280"/>
    <path id="Tracciato_5" data-name="Tracciato 5" d="M128.953,297.906h7.625a.953.953,0,0,0,0-1.906h-7.625a.953.953,0,0,0,0,1.906Z" transform="translate(-77.526 -246.641)" fill="#2f5280"/>
    <path id="Tracciato_6" data-name="Tracciato 6" d="M89.091,38.519a2.862,2.862,0,0,0-3.913,1.021l-2.3,3.921V19.813a.953.953,0,0,0-.953-.953H74.7a37.373,37.373,0,0,0-2.979-2.818A.95.95,0,0,0,71.442,16H43.8a.953.953,0,0,0-.953.953v2.98a3.812,3.812,0,0,0,0,7.384v2.148a3.812,3.812,0,0,0,0,7.384V39a3.813,3.813,0,0,0,0,7.384v1.195a3.813,3.813,0,0,0,0,7.384V60.8a.953.953,0,0,0,.953.953h.953v2.859a.953.953,0,0,0,.953.953h24.22l-.653,1.114a.946.946,0,0,0-.117.324c0,.005,0,.01,0,.016l0,.016v0l-.762,5.056a.953.953,0,0,0,1.527.895l4.054-3.148c.26-.2.387-.325.366-.491l2.219-3.786h5.37a.953.953,0,0,0,.953-.953V54.773l7.232-12.341a2.863,2.863,0,0,0-1.021-3.913ZM87.4,40.064a.953.953,0,0,1,1.063,1.4l-.482.822-1.644-.964.482-.822A.946.946,0,0,1,87.4,40.064ZM73.046,67.782,71.4,66.818l12.529-21.38,1.644.964ZM72.4,19.254l3.418,3.418H72.4ZM84.9,43.794l.482-.822,1.645.964-.482.822ZM80.974,20.766V46.5a.958.958,0,0,0,.018.184l-1.924,3.284V23.625a.95.95,0,0,0-.278-.673h0L76.6,20.766ZM44.755,17.906H70.489v5.719a.953.953,0,0,0,.953.953h5.719V53.221L73.28,59.844H44.755V54.958a3.809,3.809,0,0,0,2.739-2.74.953.953,0,0,0-1.847-.475,1.9,1.9,0,0,1-.892,1.173V46.379a3.809,3.809,0,0,0,2.739-2.74.953.953,0,0,0-1.847-.475,1.9,1.9,0,0,1-.892,1.173V36.848a3.809,3.809,0,0,0,2.739-2.74.953.953,0,0,0-1.847-.475,1.9,1.9,0,0,1-.892,1.173V27.317a3.809,3.809,0,0,0,2.739-2.74.953.953,0,0,0-1.847-.475,1.9,1.9,0,0,1-.892,1.173ZM41.9,23.625a1.906,1.906,0,0,1,.953-1.648v3.3A1.906,1.906,0,0,1,41.9,23.625Zm0,9.531a1.906,1.906,0,0,1,.953-1.648v3.3A1.906,1.906,0,0,1,41.9,33.156Zm0,9.531a1.906,1.906,0,0,1,.953-1.648v3.3A1.906,1.906,0,0,1,41.9,42.687Zm0,8.578a1.906,1.906,0,0,1,.953-1.648v3.3A1.906,1.906,0,0,1,41.9,51.266Zm4.766,12.391V61.75h25.5l-1.117,1.906ZM70.83,68.693l.86.5-1.06.823Zm10.144-5.037h-3.3l3.3-5.631Z" fill="#2f5280"/>
  </g>
</svg>
