<svg xmlns="http://www.w3.org/2000/svg" width="46.917" height="49.986" viewBox="0 0 46.917 49.986">
  <path id="target" d="M43.472,11.954,45.747,9.53a1.535,1.535,0,0,0,.319-1.538,1.39,1.39,0,0,0-1.175-.956l-4.221-.379-.356-4.5a1.454,1.454,0,0,0-.9-1.252,1.314,1.314,0,0,0-1.444.34L35.7,3.67A22.274,22.274,0,0,0,23.458,0,22.6,22.6,0,0,0,6.87,7.321,25.677,25.677,0,0,0,0,24.994,25.677,25.677,0,0,0,6.87,42.667a22.454,22.454,0,0,0,33.175,0,25.677,25.677,0,0,0,6.871-17.673,26.089,26.089,0,0,0-3.444-13.04Zm-5.444-3.82a1.422,1.422,0,0,0,1.254,1.336l2.429.218-3.287,3.5-3.585-.322-.3-3.82,3.287-3.5Zm-9.9,16.859a4.839,4.839,0,0,1-4.673,4.979,4.839,4.839,0,0,1-4.673-4.979,4.839,4.839,0,0,1,4.673-4.979,4.417,4.417,0,0,1,2.185.58l-3.157,3.364a1.532,1.532,0,0,0,0,2.071,1.315,1.315,0,0,0,1.944,0l3.157-3.364a5.205,5.205,0,0,1,.544,2.328Zm-.49-6.528a7.07,7.07,0,0,0-4.183-1.38,7.685,7.685,0,0,0-7.422,7.908A7.685,7.685,0,0,0,23.458,32.9a7.685,7.685,0,0,0,7.422-7.908,8.228,8.228,0,0,0-1.3-4.457l3.925-4.181a14.265,14.265,0,0,1,2.869,8.638c0,7.59-5.8,13.766-12.92,13.766s-12.92-6.175-12.92-13.766,5.8-13.766,12.92-13.766a12.381,12.381,0,0,1,8.108,3.056ZM38.1,40.6a19.822,19.822,0,0,1-29.287,0,22.666,22.666,0,0,1-6.066-15.6,22.666,22.666,0,0,1,6.066-15.6A19.954,19.954,0,0,1,23.457,2.929,19.633,19.633,0,0,1,33.691,5.807L32.14,7.459a1.512,1.512,0,0,0-.4,1c0,.053,0,.107,0,.161l.185,2.337A14.891,14.891,0,0,0,23.457,8.3c-8.64,0-15.67,7.489-15.67,16.695s7.029,16.695,15.67,16.695,15.67-7.489,15.67-16.695a17.389,17.389,0,0,0-2.492-9.024l2.193.2c.039,0,.077,0,.116,0h.02l.054,0c.03,0,.06,0,.089-.008l.055-.009c.029,0,.058-.011.086-.018l.054-.014c.028-.008.055-.017.083-.027l.053-.02c.027-.011.053-.023.08-.037l.05-.025c.026-.014.052-.031.078-.047l.046-.029c.027-.019.053-.04.079-.061l.037-.029a1.4,1.4,0,0,0,.108-.1l1.55-1.652a23.075,23.075,0,0,1,2.7,10.9A22.666,22.666,0,0,1,38.1,40.6Zm0,0" transform="translate(0.001 -0.001)" fill="#2f5280"/>
</svg>
