<?xml version="1.0"?>
<svg xmlns="http://www.w3.org/2000/svg" xmlns:xlink="http://www.w3.org/1999/xlink" xmlns:svgjs="http://svgjs.com/svgjs" version="1.1" width="512" height="512" x="0" y="0" viewBox="0 0 490.667 490.667" style="enable-background:new 0 0 512 512" xml:space="preserve"><g>
<g xmlns="http://www.w3.org/2000/svg">
	<g>
		<path d="M245.333,0C110.059,0,0,110.059,0,245.333s110.059,245.333,245.333,245.333s245.333-110.059,245.333-245.333    S380.608,0,245.333,0z M348.885,348.864c-2.091,2.091-4.821,3.136-7.552,3.136c-2.731,0-5.461-1.045-7.552-3.115l-88.448-88.469    l-88.448,88.448c-2.091,2.091-4.821,3.136-7.552,3.136c-2.731,0-5.461-1.045-7.552-3.115c-4.16-4.16-4.16-10.923,0-15.083    l88.448-88.448l-88.448-88.469c-4.16-4.16-4.16-10.923,0-15.083c4.16-4.16,10.923-4.16,15.083,0l88.448,88.448l88.448-88.448    c4.16-4.16,10.923-4.16,15.083,0c4.16,4.16,4.16,10.923,0,15.083l-88.427,88.448l88.469,88.448    C353.045,337.941,353.045,344.704,348.885,348.864z" fill="#b10b0b" data-original="#000000" style=""/>
	</g>
</g>
<g xmlns="http://www.w3.org/2000/svg">
</g>
<g xmlns="http://www.w3.org/2000/svg">
</g>
<g xmlns="http://www.w3.org/2000/svg">
</g>
<g xmlns="http://www.w3.org/2000/svg">
</g>
<g xmlns="http://www.w3.org/2000/svg">
</g>
<g xmlns="http://www.w3.org/2000/svg">
</g>
<g xmlns="http://www.w3.org/2000/svg">
</g>
<g xmlns="http://www.w3.org/2000/svg">
</g>
<g xmlns="http://www.w3.org/2000/svg">
</g>
<g xmlns="http://www.w3.org/2000/svg">
</g>
<g xmlns="http://www.w3.org/2000/svg">
</g>
<g xmlns="http://www.w3.org/2000/svg">
</g>
<g xmlns="http://www.w3.org/2000/svg">
</g>
<g xmlns="http://www.w3.org/2000/svg">
</g>
<g xmlns="http://www.w3.org/2000/svg">
</g>
</g></svg>
